HIERARCHY
ROOT Hips
{
 OFFSET 0.000000 0.000000 0.000000
 CHANNELS 6 Xposition Yposition Zposition Yrotation Xrotation Zrotation
 JOINT Chest
 {
  OFFSET 0.000000 10.364816 -1.151647
  CHANNELS 3 Yrotation Xrotation Zrotation
  JOINT Chest2
  {
   OFFSET 0.000000 11.517722 0.000000
   CHANNELS 3 Yrotation Xrotation Zrotation
   JOINT Chest3
   {
    OFFSET 0.000000 10.515803 -0.000997
    CHANNELS 3 Yrotation Xrotation Zrotation
    JOINT Chest4
    {
     OFFSET 0.000000 10.504064 -0.000998
     CHANNELS 3 Yrotation Xrotation Zrotation
     JOINT Neck
     {
      OFFSET 0.000000 14.700995 0.000000
      CHANNELS 3 Yrotation Xrotation Zrotation
      JOINT Head
      {
       OFFSET 0.000000 9.779656 0.002144
       CHANNELS 3 Yrotation Xrotation Zrotation
       End Site
       {
        OFFSET 0.000000 18.151804 0.000288
       }
      }
     }
     JOINT RightCollar
     {
      OFFSET -3.200323 8.241254 0.000000
      CHANNELS 3 Yrotation Xrotation Zrotation
      JOINT RightShoulder
      {
       OFFSET -14.963748 0.000000 0.000000
       CHANNELS 3 Yrotation Xrotation Zrotation
       JOINT RightElbow
       {
        OFFSET -31.975847 0.000000 0.000000
        CHANNELS 3 Yrotation Xrotation Zrotation
        JOINT RightWrist
        {
         OFFSET -26.149034 0.000000 0.000000
         CHANNELS 3 Yrotation Xrotation Zrotation
         End Site
         {
          OFFSET -19.551817 0.000000 0.000000
         }
        }
       }
      }
     }
     JOINT LeftCollar
     {
      OFFSET 3.200323 8.241254 0.000000
      CHANNELS 3 Yrotation Xrotation Zrotation
      JOINT LeftShoulder
      {
       OFFSET 14.963748 0.000000 0.000000
       CHANNELS 3 Yrotation Xrotation Zrotation
       JOINT LeftElbow
       {
        OFFSET 31.975847 0.000000 0.000000
        CHANNELS 3 Yrotation Xrotation Zrotation
        JOINT LeftWrist
        {
         OFFSET 26.149034 0.000000 0.000000
         CHANNELS 3 Yrotation Xrotation Zrotation
         End Site
         {
          OFFSET 19.551817 0.000000 0.000000
         }
        }
       }
      }
     }
    }
   }
  }
 }
 JOINT RightHip
 {
  OFFSET -8.525852 0.003604 -0.000400
  CHANNELS 3 Yrotation Xrotation Zrotation
  JOINT RightKnee
  {
   OFFSET 0.000000 -44.087434 -0.000236
   CHANNELS 3 Yrotation Xrotation Zrotation
   JOINT RightAnkle
   {
    OFFSET 0.000000 -43.085328 -0.000397
    CHANNELS 3 Yrotation Xrotation Zrotation
    JOINT RightToe
    {
     OFFSET 0.000000 -7.938348 18.057956
     CHANNELS 3 Yrotation Xrotation Zrotation
     End Site
     {
      OFFSET 0.000000 -1.698114 7.444337
     }
    }
   }
  }
 }
 JOINT LeftHip
 {
  OFFSET 8.525852 0.001277 -0.000142
  CHANNELS 3 Yrotation Xrotation Zrotation
  JOINT LeftKnee
  {
   OFFSET 0.000000 -44.087434 -0.000236
   CHANNELS 3 Yrotation Xrotation Zrotation
   JOINT LeftAnkle
   {
    OFFSET 0.000000 -43.085328 -0.000397
    CHANNELS 3 Yrotation Xrotation Zrotation
    JOINT LeftToe
    {
     OFFSET 0.000000 -7.938348 18.057956
     CHANNELS 3 Yrotation Xrotation Zrotation
     End Site
     {
      OFFSET 0.000000 -1.698114 7.444337
     }
    }
   }
  }
 }
}
MOTION
Frames: 17
Frame Time: 0.004167
-196.355476 95.182990 690.789925 10.350444 0.514629 -2.696010 2.353685 4.533139 2.290367 0.921713 -3.799167 0.995666 0.920152 2.020515 1.089281 0.769823 7.353128 0.820356 -2.435052 15.171363 0.519315 -4.748352 -7.794295 1.880698 4.739416 -4.465516 6.111463 3.324660 -23.616467 63.609815 6.827951 7.304868 5.778768 0.648726 4.336313 -5.549689 1.077835 -2.149639 -8.012718 3.010858 3.246989 -76.376758 -5.601097 22.092202 -1.209870 4.919948 -0.507515 3.094742 -4.094013 8.476758 3.877970 1.789482 19.945615 -0.220628 2.570949 -10.710882 2.851831 0.857585 -17.968383 -5.397488 8.445291 -25.220347 -0.325932 -4.164906 9.912469 -1.335585 -3.934182 -11.192440 -2.533069 -0.000000 -0.000000 0.000000
-196.233192 95.135678 691.286140 10.290667 0.535729 -2.675486 2.352241 4.494272 2.266831 0.922542 -3.816585 0.985454 0.920953 2.003095 1.079154 0.769710 7.340060 0.812708 -2.429346 15.190965 0.516102 -4.735767 -7.758283 1.871712 4.736452 -4.438666 6.118797 3.271723 -23.559131 63.662349 6.842837 7.326039 5.772836 0.649111 4.338014 -5.534251 1.087189 -2.129098 -8.010104 3.055475 3.363388 -76.360190 -5.563489 22.137443 -1.174679 4.928474 -0.501664 3.087706 -4.269646 8.641316 3.780270 1.876819 20.154518 -0.254350 2.637154 -10.645320 2.954893 0.887068 -18.394276 -5.460863 8.575548 -25.070884 -0.490969 -4.218892 9.926538 -1.243779 -3.780144 -11.269524 -2.509954 0.000000 -0.000000 0.000000
-196.108424 95.087345 691.784883 10.227834 0.558555 -2.652880 2.351196 4.452516 2.242154 0.923621 -3.835292 0.974749 0.921998 1.984386 1.068558 0.769749 7.326025 0.804706 -2.423630 15.211371 0.512689 -4.723062 -7.720791 1.862319 4.733078 -4.411826 6.124676 3.206711 -23.490577 63.723789 6.860937 7.349092 5.767658 0.649448 4.338936 -5.519890 1.097384 -2.107481 -8.008640 3.103963 3.472986 -76.341657 -5.533287 22.175599 -1.144930 4.935807 -0.496659 3.081071 -4.435907 8.792068 3.679478 1.951983 20.385907 -0.292218 2.706299 -10.580732 3.063069 0.916152 -18.816015 -5.525061 8.688907 -24.923970 -0.647252 -4.319409 9.958056 -1.156909 -3.645785 -11.354485 -2.458022 0.000000 0.000000 -0.000000
-195.979791 95.035182 692.287480 10.161605 0.583836 -2.629092 2.350718 4.406384 2.217121 0.924986 -3.855942 0.963906 0.923327 1.963733 1.057853 0.769994 7.310532 0.796622 -2.418080 15.233654 0.508721 -4.710394 -7.679829 1.851875 4.729403 -4.383328 6.127494 3.127875 -23.409660 63.795081 6.883893 7.374958 5.763826 0.649800 4.339385 -5.505120 1.109008 -2.083201 -8.008120 3.156040 3.577875 -76.322414 -5.511452 22.207143 -1.120983 4.941412 -0.492526 3.074774 -4.596628 8.937869 3.577171 2.022694 20.627994 -0.333638 2.773695 -10.519582 3.171720 0.946733 -19.255464 -5.587261 8.793284 -24.781462 -0.804065 -4.467407 10.036668 -1.064542 -3.542199 -11.468383 -2.362859 0.000000 -0.000000 0.000000
-195.846282 94.977456 692.794671 10.092205 0.611923 -2.604597 2.350650 4.355071 2.192208 0.926546 -3.878892 0.953142 0.924847 1.940781 1.047247 0.770395 7.293315 0.788614 -2.412772 15.258631 0.503964 -4.697799 -7.633890 1.839937 4.725270 -4.351835 6.126480 3.035568 -23.316172 63.876183 6.912189 7.404645 5.761554 0.650071 4.339854 -5.488546 1.122169 -2.055344 -8.008245 3.210094 3.679829 -76.303886 -5.497595 22.233418 -1.102212 4.944944 -0.489190 3.068796 -4.756973 9.085586 3.473652 2.095977 20.871263 -0.377814 2.836393 -10.462486 3.277659 0.980334 -19.728801 -5.645656 8.897292 -24.644644 -0.970828 -4.653995 10.189592 -0.957262 -3.470283 -11.623194 -2.219233 0.000000 -0.000000 -0.000000
-195.708570 94.915737 693.305677 10.020080 0.642356 -2.578852 2.350758 4.299467 2.166984 0.928216 -3.903749 0.942262 0.926474 1.915921 1.036536 0.770871 7.274667 0.780529 -2.407592 15.285791 0.498605 -4.685152 -7.583918 1.826837 4.720489 -4.318099 6.122646 2.931698 -23.210962 63.966054 6.944605 7.437880 5.760427 0.650145 4.340354 -5.470714 1.136390 -2.024836 -8.009033 3.265435 3.777960 -76.285740 -5.490642 22.254803 -1.087958 4.946700 -0.486590 3.063178 -4.916428 9.231095 3.367740 2.168795 21.120953 -0.424907 2.897059 -10.407528 3.383230 1.016112 -20.225427 -5.701729 8.998746 -24.512638 -1.144617 -4.872771 10.405925 -0.839253 -3.420198 -11.806292 -2.036938 -0.000000 -0.000000 0.000000
-195.567331 94.851592 693.819716 9.945677 0.674675 -2.551318 2.350807 4.240460 2.141019 0.929910 -3.930123 0.931072 0.928123 1.889544 1.025517 0.771342 7.254882 0.772211 -2.402424 15.314623 0.492831 -4.672328 -7.530858 1.812903 4.714873 -4.282872 6.117007 2.818173 -23.094880 64.063656 6.979920 7.474395 5.760028 0.649911 4.340896 -5.452172 1.151196 -1.992605 -8.010500 3.321377 3.871379 -76.267645 -5.489509 22.271671 -1.077556 4.946972 -0.484664 3.057965 -5.074461 9.370261 3.258294 2.238118 21.382300 -0.475101 2.958422 -10.352788 3.490722 1.053199 -20.734748 -5.756971 9.095478 -24.384580 -1.322515 -5.117445 10.674701 -0.714771 -3.382072 -12.005069 -1.825845 0.000000 0.000000 0.000000
-195.423239 94.786590 694.336008 9.869445 0.708425 -2.521449 2.350564 4.178937 2.113877 0.931542 -3.957622 0.919374 0.929709 1.862042 1.013984 0.771729 7.234252 0.763507 -2.397154 15.344617 0.486829 -4.659203 -7.475652 1.798469 4.708230 -4.246902 6.110577 2.696891 -22.968787 64.167963 7.016911 7.513920 5.759933 0.649256 4.341490 -5.433466 1.166111 -1.959576 -8.012666 3.377232 3.959199 -76.249280 -5.493111 22.284391 -1.070335 4.946055 -0.483348 3.053199 -5.230524 9.498943 3.144208 2.300915 21.660536 -0.528601 3.023267 -10.296345 3.602368 1.090714 -21.246180 -5.812881 9.185334 -24.259624 -1.501611 -5.381878 10.984866 -0.588085 -3.345999 -12.207020 -1.596051 -0.000000 -0.000000 -0.000000
-195.276969 94.722299 694.853770 9.791831 0.743148 -2.488702 2.349794 4.115785 2.085124 0.933028 -3.985857 0.906972 0.931146 1.833805 1.001731 0.771953 7.213069 0.754259 -2.391667 15.375262 0.480788 -4.645651 -7.419245 1.783866 4.700366 -4.210933 6.104371 2.569743 -22.833555 64.277960 7.054356 7.556187 5.759710 0.648070 4.342146 -5.415146 1.180660 -1.926676 -8.015551 3.432312 4.040535 -76.230329 -5.500360 22.293329 -1.065622 4.944243 -0.482578 3.048924 -5.384047 9.612994 3.024414 2.354159 21.960891 -0.585646 3.094445 -10.236274 3.720338 1.127761 -21.749145 -5.870972 9.266173 -24.136935 -1.679005 -5.660109 11.325265 -0.463436 -3.302056 -12.399798 -1.357967 0.000000 -0.000000 -0.000000
-195.129196 94.660287 695.372222 9.713284 0.778390 -2.452530 2.348264 4.051888 2.054322 0.934281 -4.014438 0.893667 0.932352 1.805222 0.988552 0.771934 7.191627 0.744313 -2.385849 15.406049 0.474900 -4.631546 -7.362579 1.769430 4.691084 -4.175711 6.099407 2.438607 -22.690066 64.392652 7.091031 7.600928 5.758925 0.646245 4.342870 -5.397758 1.194367 -1.894832 -8.019176 3.485931 4.114499 -76.210478 -5.510163 22.298850 -1.062739 4.941827 -0.482293 3.045183 -5.534432 9.708261 2.897881 2.394818 22.288595 -0.646518 3.174869 -10.170649 3.846738 1.163418 -22.233077 -5.932765 9.335869 -24.015691 -1.851804 -5.946372 11.684618 -0.344994 -3.240327 -12.571257 -1.122361 -0.000000 0.000000 0.000000
-194.980594 94.602123 695.890583 9.634252 0.813696 -2.412385 2.345742 3.988128 2.021029 0.935217 -4.042976 0.879258 0.933242 1.776682 0.974236 0.771592 7.170216 0.733510 -2.379586 15.436468 0.469354 -4.616763 -7.306597 1.755496 4.680183 -4.141973 6.096702 2.305346 -22.539216 64.511063 7.125712 7.647874 5.757131 0.643675 4.343671 -5.381852 1.206758 -1.864969 -8.023566 3.537398 4.180209 -76.189423 -5.521427 22.301316 -1.061005 4.939102 -0.482427 3.042019 -5.681048 9.780587 2.763614 2.419856 22.648875 -0.711561 3.267524 -10.097542 3.983604 1.196729 -22.687421 -5.999789 9.392307 -23.895082 -2.017124 -6.235091 12.051525 -0.236827 -3.150943 -12.709463 -0.900349 0.000000 -0.000000 -0.000000
-194.831839 94.549374 696.408073 9.555183 0.848615 -2.367716 2.341993 3.925387 1.984803 0.935752 -4.071083 0.863546 0.933730 1.748575 0.958576 0.770848 7.149127 0.721693 -2.372762 15.466008 0.464342 -4.601176 -7.252241 1.742401 4.667459 -4.110455 6.097276 2.171808 -22.381918 64.632237 7.157173 7.696755 5.753877 0.640255 4.344551 -5.367977 1.217354 -1.838014 -8.028744 3.586021 4.236780 -76.166856 -5.533058 22.301089 -1.059737 4.936361 -0.482916 3.039477 -5.823228 9.825812 2.620652 2.426220 23.046958 -0.781206 3.375469 -10.015030 4.132900 1.226673 -23.101636 -6.073575 9.433386 -23.774300 -2.172089 -6.520872 12.414458 -0.142881 -3.024129 -12.802685 -0.703329 0.000000 0.000000 -0.000000
-194.683604 94.503610 696.923909 9.476527 0.882694 -2.317972 2.336783 3.864545 1.945198 0.935799 -4.098370 0.846327 0.933734 1.721288 0.941360 0.769623 7.128652 0.708701 -2.365265 15.494161 0.460059 -4.584659 -7.200451 1.730486 4.652705 -4.081891 6.102153 2.039822 -22.219097 64.755247 7.184190 7.747299 5.748703 0.635884 4.345512 -5.356680 1.225681 -1.814895 -8.034735 3.631108 4.283335 -76.142477 -5.543959 22.298531 -1.058251 4.933895 -0.483696 3.037600 -5.960255 9.839776 2.468062 2.410836 23.488072 -0.855995 3.501846 -9.921192 4.296511 1.252139 -23.465199 -6.155649 9.457020 -23.652546 -2.313840 -6.798480 12.761766 -0.066958 -2.850270 -12.839358 -0.542869 0.000000 0.000000 0.000000
-194.536565 94.466398 697.437310 9.398732 0.915482 -2.262599 2.329876 3.806479 1.901765 0.935273 -4.124452 0.827398 0.933168 1.695207 0.922376 0.767836 7.109080 0.694375 -2.356980 15.520418 0.456699 -4.567084 -7.152170 1.720091 4.635709 -4.057005 6.112358 1.911199 -22.051695 64.879188 7.205535 7.799233 5.741143 0.630462 4.346553 -5.348512 1.231260 -1.796536 -8.041562 3.671959 4.318994 -76.115981 -5.553034 22.294005 -1.055861 4.931999 -0.484702 3.036431 -6.091356 9.818323 2.304944 2.370596 23.977447 -0.936614 3.649886 -9.814119 4.476242 1.271882 -23.767607 -6.247526 9.461137 -23.529013 -2.439527 -7.062801 13.081690 -0.012707 -2.619982 -12.808024 -0.430546 0.000000 -0.000000 -0.000000
-194.391397 94.439306 697.947497 9.322245 0.946528 -2.201041 2.321034 3.752063 1.854052 0.934088 -4.148941 0.806554 0.931946 1.670720 0.901411 0.765407 7.090700 0.678554 -2.347794 15.544271 0.454458 -4.548327 -7.108337 1.711559 4.616256 -4.036520 6.128920 1.787733 -21.880669 65.003182 7.219980 7.852278 5.730720 0.623891 4.347667 -5.344022 1.233612 -1.783863 -8.049248 3.707874 4.342886 -76.087062 -5.559185 22.287874 -1.051885 4.930966 -0.485867 3.036014 -6.215696 9.757298 2.130417 2.302340 24.520318 -1.023934 3.822915 -9.691911 4.673810 1.284478 -23.998385 -6.350694 9.443679 -23.402893 -2.546321 -7.308796 13.362375 0.016384 -2.324194 -12.697241 -0.377743 0.000000 -0.000000 0.000000
-194.247672 94.423026 698.455701 9.245971 0.977784 -2.132609 2.310510 3.699077 1.800885 0.932427 -4.172830 0.783283 0.930250 1.646834 0.877970 0.762436 7.072768 0.660864 -2.337339 15.566529 0.454511 -4.528099 -7.067411 1.706914 4.594639 -4.020111 6.154845 1.666690 -21.703568 65.126946 7.226991 7.907189 5.716406 0.616073 4.348669 -5.344242 1.234379 -1.777244 -8.057458 3.743406 4.356928 -76.054737 -5.562966 22.279471 -1.047137 4.930889 -0.487298 3.036707 -6.329572 9.659105 1.944474 2.191924 25.112007 -1.126320 4.030733 -9.566090 4.896929 1.292020 -24.164833 -6.472484 9.405396 -23.275925 -2.632452 -7.555101 13.611528 0.016432 -1.945427 -12.491124 -0.389317 -0.000000 0.000000 0.000000
-194.104381 94.416287 698.963559 9.168735 1.011003 -2.057468 2.298736 3.645126 1.742010 0.930504 -4.197180 0.757481 0.928293 1.622487 0.851971 0.759078 7.054488 0.641244 -2.325508 15.588267 0.457396 -4.506359 -7.027378 1.707074 4.571252 -4.006748 6.190925 1.544423 -21.517775 65.251152 7.227564 7.964728 5.697995 0.607067 4.349426 -5.349233 1.235126 -1.775903 -8.065950 3.782191 4.363295 -76.018704 -5.565925 22.267973 -1.042877 4.931510 -0.489131 3.038691 -6.431210 9.529787 1.748318 2.033210 25.743734 -1.249501 4.276766 -9.446093 5.147852 1.296686 -24.283191 -6.615838 9.349119 -23.150160 -2.699996 -7.819719 13.846504 -0.011256 -1.483237 -12.192282 -0.456657 0.000000 0.000000 -0.000000
